HIERARCHY
ROOT SimulationBone
{
	OFFSET 0.000000 0.000000 0.000000
	CHANNELS 6 Xposition Yposition Zposition Zrotation Yrotation Xrotation 
	JOINT Hips
	{
		OFFSET 0.000000 0.000000 0.000000
		CHANNELS 6 Xposition Yposition Zposition Zrotation Yrotation Xrotation 
		JOINT LeftUpLeg
		{
			OFFSET 0.103459 1.857839 10.548500
			CHANNELS 3 Zrotation Yrotation Xrotation
			JOINT LeftLeg
			{
				OFFSET 43.500004 -0.000053 -0.000011
				CHANNELS 3 Zrotation Yrotation Xrotation
				JOINT LeftFoot
				{
					OFFSET 42.372192 0.000015 -0.000008
					CHANNELS 3 Zrotation Yrotation Xrotation
					JOINT LeftToe
					{
						OFFSET 17.300007 0.000002 0.000013
						CHANNELS 3 Zrotation Yrotation Xrotation
						End Site
						{
							OFFSET 0.000000 0.000000 0.000000
						}
					}
				}
			}
		}
		JOINT RightUpLeg
		{
			OFFSET 0.103460 1.857826 -10.548500
			CHANNELS 3 Zrotation Yrotation Xrotation
			JOINT RightLeg
			{
				OFFSET 43.500046 -0.000019 0.000011
				CHANNELS 3 Zrotation Yrotation Xrotation
				JOINT RightFoot
				{
					OFFSET 42.372261 0.000004 0.000012
					CHANNELS 3 Zrotation Yrotation Xrotation
					JOINT RightToe
					{
						OFFSET 17.299995 -0.000004 0.000006
						CHANNELS 3 Zrotation Yrotation Xrotation
						End Site
						{
							OFFSET 0.000000 0.000000 0.000000
						}
					}
				}
			}
		}
		JOINT Spine
		{
			OFFSET 6.901963 -2.603745 -0.000005
			CHANNELS 3 Zrotation Yrotation Xrotation
			JOINT Spine1
			{
				OFFSET 12.588102 0.000012 0.000012
				CHANNELS 3 Zrotation Yrotation Xrotation
				JOINT Spine2
				{
					OFFSET 12.343202 0.000010 -0.000009
					CHANNELS 3 Zrotation Yrotation Xrotation
					JOINT Neck
					{
						OFFSET 25.832901 -0.000008 0.000006
						CHANNELS 3 Zrotation Yrotation Xrotation
						JOINT Head
						{
							OFFSET 11.766603 0.000007 -0.000001
							CHANNELS 3 Zrotation Yrotation Xrotation
							End Site
							{
								OFFSET 0.000000 0.000000 0.000000
							}
						}
					}
					JOINT LeftShoulder
					{
						OFFSET 19.745903 -1.480391 6.000108
						CHANNELS 3 Zrotation Yrotation Xrotation
						JOINT LeftArm
						{
							OFFSET 11.284125 -0.000031 -0.000021
							CHANNELS 3 Zrotation Yrotation Xrotation
							JOINT LeftForeArm
							{
								OFFSET 33.000046 0.000024 0.000034
								CHANNELS 3 Zrotation Yrotation Xrotation
								JOINT LeftHand
								{
									OFFSET 25.200014 0.000020 0.000007
									CHANNELS 3 Zrotation Yrotation Xrotation
									End Site
									{
										OFFSET 0.000000 0.000000 0.000000
									}
								}
							}
						}
					}
					JOINT RightShoulder
					{
						OFFSET 19.746098 -1.480371 -6.000075
						CHANNELS 3 Zrotation Yrotation Xrotation
						JOINT RightArm
						{
							OFFSET 11.284128 -0.000021 -0.000009
							CHANNELS 3 Zrotation Yrotation Xrotation
							JOINT RightForeArm
							{
								OFFSET 33.000095 0.000034 0.000006
								CHANNELS 3 Zrotation Yrotation Xrotation
								JOINT RightHand
								{
									OFFSET 25.199781 0.000147 0.000427
									CHANNELS 3 Zrotation Yrotation Xrotation
									End Site
									{
										OFFSET 0.000000 0.000000 0.000000
									}
								}
							}
						}
					}
				}
			}
		}
	}
}
MOTION
Frames: 11
Frame Time: 0.033333
-214.955969 0.000000 -561.460722 180.000000 82.245510 180.000000 2.514358 80.513008 2.007987 95.287153 6.035685 -178.396802 143.574073 -1.681305 158.747626 -50.536744 0.404672 -12.436280 86.593808 11.138452 14.981393 21.454548 0.003086 -0.000001 161.676725 7.431494 169.340183 -85.113781 -5.487499 5.721912 69.826246 -1.982299 5.608642 21.454563 -0.003112 -0.000013 7.659497 0.467463 -2.087263 5.287736 1.029146 -4.151273 4.970501 1.004213 -4.157387 23.733210 6.406172 10.463786 -16.160847 -24.224514 19.894756 -146.546941 -87.237068 -35.251959 -27.963305 58.982809 17.718880 -88.717812 -6.102007 2.675101 -1.061213 2.719188 15.330349 -150.695065 75.849421 31.387950 20.181242 -47.341916 -15.474646 -102.199410 1.199227 -2.976466 -5.678114 5.847330 -13.171240 
-217.633675 0.000000 -565.544513 180.000000 74.507322 180.000000 1.581123 80.436111 2.523724 95.020517 6.530252 179.924515 145.739640 1.797296 161.011628 -52.274358 0.110912 -11.399304 89.923682 10.067044 15.743700 21.454553 0.003093 0.000001 158.143482 5.186489 168.079549 -89.602096 -4.926114 5.765550 72.319184 -2.551090 4.307578 21.454555 -0.003108 -0.000020 7.774942 0.508400 -2.114471 5.516840 1.116398 -4.202621 5.199620 1.091149 -4.209259 24.794070 7.199527 10.029486 -17.463822 -24.008096 19.643950 -168.677177 -87.416463 -13.024834 -31.729634 59.961882 12.482019 -85.512029 -8.568885 2.706382 0.689960 2.866994 23.274146 -151.878900 75.942899 30.175069 22.821527 -51.127798 -17.574876 -94.294368 2.736188 -2.730261 -5.243446 5.281024 -18.571037 
-220.411593 0.000000 -569.351401 180.000000 66.599860 180.000000 0.189131 81.503700 2.815899 94.424066 6.871297 177.290250 149.922734 3.566408 159.644634 -50.411669 0.356620 -7.714433 91.007975 7.683262 17.241325 21.454553 0.003096 0.000001 154.117891 1.853200 166.414486 -89.590307 -5.285885 6.888201 74.261157 -3.123485 5.253665 21.454557 -0.003108 -0.000015 7.904015 0.668686 -2.005585 5.770742 1.435974 -3.975794 5.453357 1.412108 -3.984368 24.751463 6.096766 9.474281 -17.298243 -23.692079 18.902765 -179.395970 -87.291805 -2.260037 -35.439372 61.092736 6.620738 -85.341472 -8.600953 2.701109 -0.206922 3.473744 25.876493 -152.154048 76.653198 29.875002 23.608108 -53.600114 -23.416993 -85.403661 7.219147 -2.647271 -7.481192 7.302441 -21.664522 
-223.280694 0.000000 -572.884212 180.000000 58.753304 180.000000 -1.097513 82.841263 2.993060 93.054886 6.949841 175.679108 153.848795 4.983400 158.760480 -47.884950 0.279791 -3.260306 90.495430 5.070365 18.659115 21.454555 0.003091 0.000000 150.075512 -1.621314 165.788212 -85.916560 -6.076651 9.367382 74.914560 -5.104839 4.642977 21.454557 -0.003107 -0.000026 7.757632 0.886937 -2.139529 5.468547 1.873325 -4.235536 5.151192 1.847886 -4.246729 24.745545 5.335818 9.277398 -16.082106 -24.227972 18.589620 -168.810120 -87.697259 -12.891962 -38.533001 62.511831 2.574510 -87.320212 -7.631684 2.720446 0.564920 3.502572 25.648332 -154.882066 76.548812 27.092051 24.096590 -52.084734 -30.436088 -79.508183 10.240867 -2.599758 -7.259235 9.262276 -22.530340 
-226.231947 0.000000 -576.145774 180.000000 51.180213 180.000000 -2.124968 84.717308 2.865352 91.914169 7.138342 175.832616 158.752980 6.261202 159.269630 -43.941892 0.028395 1.498678 87.560887 2.681455 19.916502 21.454550 0.003085 0.000001 147.988247 -3.832790 165.378769 -78.218227 -6.835744 10.531924 76.622428 -5.719421 5.625769 21.454565 -0.003103 -0.000013 7.675429 1.221514 -2.528208 5.283565 2.556381 -4.999558 4.966424 2.526322 -5.014847 24.415333 4.306458 8.966038 -15.506280 -23.895530 18.008620 -156.999056 -88.367096 -24.734912 -40.049917 63.311680 1.249677 -89.585895 -6.478785 2.739953 -0.534240 2.424708 24.174551 -155.608894 76.406020 26.352079 25.694342 -50.621810 -36.877492 -76.243045 11.660216 -2.557873 -6.531028 7.916354 -20.010310 
-229.256321 0.000000 -579.138911 180.000000 44.040640 180.000000 -2.725039 86.456100 2.757806 90.756853 7.133972 177.926320 163.367811 6.985602 161.038198 -40.807529 -0.522227 6.238657 83.759313 0.414793 20.791644 21.454553 0.003094 -0.000000 147.004905 -4.344497 165.951194 -67.474127 -7.127087 11.290639 77.290284 -6.202508 6.092858 21.454560 -0.003109 -0.000017 7.533764 1.573588 -3.124689 4.968227 3.278823 -6.181859 4.651576 3.241640 -6.201453 23.550929 4.644662 8.315649 -15.593240 -24.408702 17.538003 177.148702 -89.190126 1.165381 -40.414786 63.050016 1.319360 -91.970840 -4.950877 2.738822 -1.321570 1.511219 20.925324 -152.669918 75.677301 29.373065 28.194860 -48.913942 -41.574265 -76.005293 11.226244 -2.517435 -5.952035 6.096367 -21.285637 
-232.344786 0.000000 -581.866450 180.000000 37.427049 180.000000 -2.968040 88.013397 2.627856 89.564758 7.367078 -179.095510 167.922291 7.139297 164.496172 -37.503121 -1.484589 9.137284 80.171907 -0.629655 21.625388 21.454553 0.003087 0.000001 146.957735 -3.369400 166.435359 -54.398106 -6.647333 9.961582 76.277080 -4.413654 9.203997 21.454562 -0.003108 -0.000017 7.286807 1.926908 -3.668031 4.436889 3.991648 -7.264436 4.120736 3.947956 -7.288258 22.816857 5.543825 7.544067 -15.634578 -24.154836 16.666920 92.771700 -88.404675 85.655162 -40.318337 62.306741 2.401550 -93.404060 -4.158360 2.747076 -1.062029 0.721653 21.029020 -151.138931 74.788591 30.963983 31.443070 -46.487541 -45.593231 -77.856459 10.542465 -2.549281 -5.303708 5.546201 -20.969198 
-235.488311 0.000000 -584.331218 180.000000 31.369051 180.000000 -2.999593 88.929497 2.469040 88.161053 7.784940 -176.747812 171.743276 7.310493 167.382515 -34.704533 -0.860160 10.069231 78.682386 -0.850567 22.144981 21.454545 0.003091 -0.000000 147.028742 -1.683107 168.055343 -39.830224 -5.386223 7.906799 72.499692 -1.992437 11.558604 21.454557 -0.003110 -0.000018 6.920246 2.250660 -3.936962 3.672996 4.623430 -7.807653 3.357012 4.576468 -7.835235 22.096162 6.012179 6.497628 -15.561580 -23.252817 15.251666 77.766990 -87.579329 100.706215 -40.678527 61.123226 3.956324 -94.370395 -3.706867 2.758483 -0.274143 0.472438 19.698687 -149.331090 73.640210 32.850949 34.057775 -43.400774 -48.187063 -80.593773 9.503675 -2.595531 -6.005238 5.607721 -20.832984 
-238.677866 0.000000 -586.536041 180.000000 25.849407 180.000000 -2.753693 89.308289 2.284597 86.964589 8.277314 -175.191599 175.909036 6.796908 169.585947 -31.653736 -0.736142 10.073643 78.116027 -0.320028 23.628295 21.454550 0.003094 -0.000001 147.645044 0.079606 168.869365 -25.631212 -2.868813 6.315139 65.489916 1.595403 16.234014 21.454557 -0.003109 -0.000017 6.548728 2.482295 -3.967055 2.913251 5.061705 -7.879103 2.597078 5.014311 -7.909316 21.245922 6.647819 5.408492 -15.557615 -22.567584 13.904051 73.067888 -87.278541 105.414974 -40.415582 60.083712 5.619676 -94.765979 -3.364615 2.752147 0.539204 0.994381 20.432810 -147.722935 73.086316 34.517932 36.262427 -40.775239 -49.605287 -83.283830 8.233109 -2.624620 -5.848367 4.917052 -21.097636 
-241.904422 0.000000 -588.483745 180.000000 20.822103 180.000000 -2.302757 88.864891 2.226829 86.421724 8.445063 -174.742966 -179.815344 6.091597 171.687009 -29.732643 -0.749994 9.232641 78.928225 0.295077 24.408513 21.454553 0.003092 -0.000000 148.300824 1.746993 171.903362 -14.810485 -1.106712 3.690794 58.938829 8.313401 24.347022 21.454560 -0.003108 -0.000018 6.279369 2.494946 -3.778356 2.382034 5.065085 -7.513092 2.065581 5.019890 -7.543358 20.247901 6.996520 4.574591 -15.166389 -21.803729 12.723577 58.492927 -87.339719 119.935144 -39.438199 59.061711 7.850882 -94.875637 -3.221039 2.746986 1.290238 1.039255 20.498465 -147.191874 73.203201 35.058992 37.530906 -38.426767 -50.361659 -85.340284 7.196029 -2.642858 -6.168572 4.015793 -20.144584 
-245.158946 0.000000 -590.177157 180.000000 16.227165 180.000000 -1.472654 87.766319 2.405711 87.239576 8.240247 -175.310051 -175.230580 4.786102 173.368615 -29.941333 -0.810004 9.489988 80.236684 -0.038923 24.847361 21.454553 0.003093 0.000000 148.549115 2.064606 177.810151 -12.199333 -1.450812 -0.719975 56.292923 13.633692 26.882602 21.454555 -0.003108 -0.000015 6.317278 2.306554 -3.455794 2.483270 4.684878 -6.868153 2.166516 4.643557 -6.896179 19.469982 7.497337 4.189571 -14.104994 -21.193614 11.937980 47.248028 -87.833275 131.112981 -37.091376 57.695612 10.741494 -94.056985 -3.527187 2.731976 0.847475 0.630123 21.084249 -147.429920 73.704892 34.797020 36.957573 -36.966500 -50.683958 -86.192138 6.713884 -2.646869 -5.714158 3.333940 -18.484640 
